# xmcd
#
# Track frame offsets: 
#        150
#        16901
#        31720
#        47919
#        68284
#        84194
#        103444
#        118401
#        136097
#        152551
#        170471
#        183548
#        209070
#        229021
#        241231
#        285977
#        302702
#        318528
#
# Disc length: 4495 seconds
#
# Revision: 1
# Processed by: cddbd v1.5.1PL0 Copyright (c) Steve Scherf et al.
# Submitted via: ExactAudioCopy v0.95a5
#
DISCID=ee118d12
DTITLE=Various Artist - De Maxx 8 [CD 2 - Classics)
DYEAR=2005
DGENRE=Dance
TTITLE0=Praga Khan - Breakfast In Vegas (Radio Version)
TTITLE1=Tiga - Pleasure From The Bass (Radio Edit)
TTITLE2=Paul Hardcastle - Nineteen
TTITLE3=Yello - Bostich
TTITLE4=Röyksopp - Eple (Original Edit)
TTITLE5=Cameo - Word Up (7" Vocal Version)
TTITLE6=Panjabi MC - Mundian To Bach Ke (Radio Mix)
TTITLE7=Tweet feat. Fabolous - Oops (Oh My) (Original Version)
TTITLE8=Snap! - Rhythm Is A Dancer (7" Edit)
TTITLE9=Kenny Hawkes and Louise Carver - Play The Game (Radio Edit)
TTITLE10=Agent Sumo - 24 Hours (Radio Edit)
TTITLE11=Neneh Cherry - Buffalo Stance
TTITLE12=Justin Timberlake - Rock Your Body (Album Version)
TTITLE13=Fatman Scoop feat. The Crooklyn Clan - Be Faithful (Dirty Ver
TTITLE13=sion)
TTITLE14=George Clinton - Atomic Dog (Original Extended Version)
TTITLE15=Markus Nikolai - Bushes (Norman Cook Mix Radio Edit)
TTITLE16=Blaze - Lovelee Dae (Original Mix - Radio Edit)
TTITLE17=Outkast - Hey Ya! (Radio Mix)
EXTD=
EXTT0=
EXTT1=
EXTT2=
EXTT3=
EXTT4=
EXTT5=
EXTT6=
EXTT7=
EXTT8=
EXTT9=
EXTT10=
EXTT11=
EXTT12=
EXTT13=
EXTT14=
EXTT15=
EXTT16=
EXTT17=
PLAYORDER=
